<svg width="9" height="12" fill="none" xmlns="http://www.w3.org/2000/svg"><path d="M.034 7.185C.304 5.279 1.599 4.02 2.213 3.63c.06 1.27.926 1.89 1.352 2.042 0-.58-.3-2.042.187-3.328C4.268.987 5.155.176 5.592 0c.026.227.038.983.264 1.588.338.908.488.643 1.765 2.345 1.277 1.701 1.953 3.78.751 5.898s-3.192 2.345-4.807 2.08C1.95 11.647-.304 9.567.034 7.185Z" fill="#FF4B23"/><path d="M6.382 5.445c.012.025.02.06.022.102.455 2.093.12 3.314-.398 4.095-.526.795-2.617 1.021-3.042-.264-.313-.946-.075-1.929 1.84-2.458 1.321-.365 1.616-1.069 1.6-1.373a12.147 12.147 0 0 0-.022-.102Z" fill="#fff"/></svg>